# xmcd
#
# Track frame offsets:
#	150
#	7896
#	27498
#	53235
#	78308
#	114375
#	136003
#	170907
#	194364
#	217820
#
# Disc length: 3494 seconds
#
# Revision: 1
# Processed by: cddbd v1.5.2PL0 Copyright (c) Steve Scherf et al.
# Submitted via: audiograbber 1.83.01
#
DISCID=7d0da40a
DTITLE=Axel Rudi Pell - Knights Call
DYEAR=2018
DGENRE=Heavy Metal
TTITLE0=The Medieval Overture [Intro]
TTITLE1=The Wild And The Young
TTITLE2=Wildest Dreams
TTITLE3=Long Live Rock
TTITLE4=The Crusaders Of Doom
TTITLE5=Truth And Lies
TTITLE6=Beyond The Light
TTITLE7=Slaves On The Run
TTITLE8=Follow The Sun
TTITLE9=Tower Of Babylon
EXTD=
EXTT0=
EXTT1=
EXTT2=
EXTT3=
EXTT4=
EXTT5=
EXTT6=
EXTT7=
EXTT8=
EXTT9=
PLAYORDER=
